<svg xmlns="http://www.w3.org/2000/svg" viewBox="0 0 23 14" width="23" height="14" shape-rendering="crispEdges">
<rect x="2" y="1" width="18" height="1" fill="#1b1f2a"/>
<rect x="1" y="2" width="1" height="1" fill="#1b1f2a"/>
<rect x="2" y="2" width="18" height="1" fill="#2b3142"/>
<rect x="20" y="2" width="1" height="1" fill="#1b1f2a"/>
<rect x="1" y="3" width="1" height="1" fill="#1b1f2a"/>
<rect x="2" y="3" width="1" height="1" fill="#2b3142"/>
<rect x="3" y="3" width="15" height="1" fill="#4a5568"/>
<rect x="18" y="3" width="2" height="1" fill="#2b3142"/>
<rect x="20" y="3" width="1" height="1" fill="#1b1f2a"/>
<rect x="1" y="4" width="1" height="1" fill="#1b1f2a"/>
<rect x="2" y="4" width="1" height="1" fill="#2b3142"/>
<rect x="3" y="4" width="1" height="1" fill="#4a5568"/>
<rect x="4" y="4" width="12" height="1" fill="#5ec8ff"/>
<rect x="16" y="4" width="1" height="1" fill="#4a5568"/>
<rect x="17" y="4" width="2" height="1" fill="#2b3142"/>
<rect x="19" y="4" width="1" height="1" fill="#1b1f2a"/>
<rect x="1" y="5" width="1" height="1" fill="#1b1f2a"/>
<rect x="2" y="5" width="1" height="1" fill="#2b3142"/>
<rect x="3" y="5" width="1" height="1" fill="#4a5568"/>
<rect x="4" y="5" width="1" height="1" fill="#5ec8ff"/>
<rect x="5" y="5" width="10" height="1" fill="#8fd3ff"/>
<rect x="15" y="5" width="1" height="1" fill="#5ec8ff"/>
<rect x="16" y="5" width="1" height="1" fill="#4a5568"/>
<rect x="17" y="5" width="2" height="1" fill="#2b3142"/>
<rect x="19" y="5" width="1" height="1" fill="#1b1f2a"/>
<rect x="1" y="6" width="1" height="1" fill="#1b1f2a"/>
<rect x="2" y="6" width="1" height="1" fill="#2b3142"/>
<rect x="3" y="6" width="14" height="1" fill="#4a5568"/>
<rect x="17" y="6" width="2" height="1" fill="#2b3142"/>
<rect x="19" y="6" width="1" height="1" fill="#1b1f2a"/>
<rect x="1" y="7" width="1" height="1" fill="#1b1f2a"/>
<rect x="2" y="7" width="17" height="1" fill="#2b3142"/>
<rect x="19" y="7" width="1" height="1" fill="#1b1f2a"/>
<rect x="1" y="8" width="1" height="1" fill="#1b1f2a"/>
<rect x="2" y="8" width="1" height="1" fill="#2b3142"/>
<rect x="3" y="8" width="2" height="1" fill="#f5a623"/>
<rect x="5" y="8" width="2" height="1" fill="#2b3142"/>
<rect x="7" y="8" width="2" height="1" fill="#4ade80"/>
<rect x="9" y="8" width="2" height="1" fill="#2b3142"/>
<rect x="11" y="8" width="2" height="1" fill="#e05252"/>
<rect x="13" y="8" width="2" height="1" fill="#2b3142"/>
<rect x="15" y="8" width="2" height="1" fill="#f7d154"/>
<rect x="17" y="8" width="2" height="1" fill="#2b3142"/>
<rect x="19" y="8" width="1" height="1" fill="#1b1f2a"/>
<rect x="1" y="9" width="1" height="1" fill="#1b1f2a"/>
<rect x="2" y="9" width="17" height="1" fill="#2b3142"/>
<rect x="19" y="9" width="1" height="1" fill="#1b1f2a"/>
<rect x="1" y="10" width="19" height="1" fill="#1b1f2a"/>
<rect x="10" y="11" width="2" height="1" fill="#c9d3e0"/>
<rect x="9" y="12" width="1" height="1" fill="#c9d3e0"/>
<rect x="12" y="12" width="1" height="1" fill="#c9d3e0"/>
</svg>