<svg xmlns="http://www.w3.org/2000/svg" viewBox="0 0 22 14" width="22" height="14" shape-rendering="crispEdges">
<rect x="1" y="1" width="19" height="1" fill="#1b1f2a"/>
<rect x="1" y="2" width="1" height="1" fill="#1b1f2a"/>
<rect x="2" y="2" width="17" height="1" fill="#2b3142"/>
<rect x="19" y="2" width="1" height="1" fill="#1b1f2a"/>
<rect x="1" y="3" width="1" height="1" fill="#1b1f2a"/>
<rect x="2" y="3" width="1" height="1" fill="#2b3142"/>
<rect x="3" y="3" width="2" height="1" fill="#5ec8ff"/>
<rect x="5" y="3" width="2" height="1" fill="#2b3142"/>
<rect x="7" y="3" width="2" height="1" fill="#5ec8ff"/>
<rect x="9" y="3" width="2" height="1" fill="#2b3142"/>
<rect x="11" y="3" width="2" height="1" fill="#5ec8ff"/>
<rect x="13" y="3" width="2" height="1" fill="#2b3142"/>
<rect x="15" y="3" width="2" height="1" fill="#5ec8ff"/>
<rect x="17" y="3" width="2" height="1" fill="#2b3142"/>
<rect x="19" y="3" width="1" height="1" fill="#1b1f2a"/>
<rect x="1" y="4" width="1" height="1" fill="#1b1f2a"/>
<rect x="2" y="4" width="17" height="1" fill="#2b3142"/>
<rect x="19" y="4" width="1" height="1" fill="#1b1f2a"/>
<rect x="1" y="5" width="1" height="1" fill="#1b1f2a"/>
<rect x="2" y="5" width="1" height="1" fill="#2b3142"/>
<rect x="3" y="5" width="2" height="1" fill="#f5a623"/>
<rect x="5" y="5" width="2" height="1" fill="#2b3142"/>
<rect x="7" y="5" width="2" height="1" fill="#4ade80"/>
<rect x="9" y="5" width="2" height="1" fill="#2b3142"/>
<rect x="11" y="5" width="2" height="1" fill="#e05252"/>
<rect x="13" y="5" width="2" height="1" fill="#2b3142"/>
<rect x="15" y="5" width="2" height="1" fill="#f7d154"/>
<rect x="17" y="5" width="2" height="1" fill="#2b3142"/>
<rect x="19" y="5" width="1" height="1" fill="#1b1f2a"/>
<rect x="1" y="6" width="1" height="1" fill="#1b1f2a"/>
<rect x="2" y="6" width="17" height="1" fill="#2b3142"/>
<rect x="19" y="6" width="1" height="1" fill="#1b1f2a"/>
<rect x="1" y="7" width="19" height="1" fill="#1b1f2a"/>
<rect x="8" y="8" width="4" height="1" fill="#4a5568"/>
<rect x="7" y="9" width="1" height="1" fill="#4a5568"/>
<rect x="8" y="9" width="4" height="1" fill="#e8ecf1"/>
<rect x="12" y="9" width="1" height="1" fill="#4a5568"/>
<rect x="8" y="10" width="4" height="1" fill="#4a5568"/>
<rect x="9" y="11" width="2" height="1" fill="#4a5568"/>
<rect x="7" y="12" width="6" height="1" fill="#4a5568"/>
</svg>