<svg xmlns="http://www.w3.org/2000/svg" viewBox="0 0 20 14" width="20" height="14" shape-rendering="crispEdges">
<rect x="2" y="1" width="15" height="1" fill="#1b1f2a"/>
<rect x="1" y="2" width="1" height="1" fill="#1b1f2a"/>
<rect x="2" y="2" width="15" height="1" fill="#e8ecf1"/>
<rect x="17" y="2" width="1" height="1" fill="#1b1f2a"/>
<rect x="1" y="3" width="1" height="1" fill="#1b1f2a"/>
<rect x="2" y="3" width="15" height="1" fill="#e8ecf1"/>
<rect x="17" y="3" width="1" height="1" fill="#1b1f2a"/>
<rect x="1" y="4" width="17" height="1" fill="#1b1f2a"/>
<rect x="0" y="5" width="1" height="1" fill="#1b1f2a"/>
<rect x="1" y="5" width="17" height="1" fill="#2b3142"/>
<rect x="18" y="5" width="1" height="1" fill="#1b1f2a"/>
<rect x="0" y="6" width="1" height="1" fill="#1b1f2a"/>
<rect x="1" y="6" width="1" height="1" fill="#2b3142"/>
<rect x="2" y="6" width="2" height="1" fill="#e05252"/>
<rect x="4" y="6" width="10" height="1" fill="#2b3142"/>
<rect x="14" y="6" width="2" height="1" fill="#4ade80"/>
<rect x="16" y="6" width="1" height="1" fill="#2b3142"/>
<rect x="17" y="6" width="1" height="1" fill="#1b1f2a"/>
<rect x="0" y="7" width="1" height="1" fill="#1b1f2a"/>
<rect x="1" y="7" width="17" height="1" fill="#2b3142"/>
<rect x="18" y="7" width="1" height="1" fill="#1b1f2a"/>
<rect x="0" y="8" width="19" height="1" fill="#1b1f2a"/>
<rect x="0" y="9" width="1" height="1" fill="#1b1f2a"/>
<rect x="6" y="9" width="7" height="1" fill="#e8ecf1"/>
<rect x="19" y="9" width="1" height="1" fill="#1b1f2a"/>
<rect x="0" y="10" width="19" height="1" fill="#1b1f2a"/>
<rect x="2" y="11" width="1" height="1" fill="#1b1f2a"/>
<rect x="14" y="11" width="1" height="1" fill="#1b1f2a"/>
<rect x="2" y="12" width="1" height="1" fill="#1b1f2a"/>
<rect x="14" y="12" width="1" height="1" fill="#1b1f2a"/>
</svg>