<svg xmlns="http://www.w3.org/2000/svg" viewBox="0 0 19 17" width="19" height="17" shape-rendering="crispEdges">
<rect x="2" y="1" width="15" height="1" fill="#1b1f2a"/>
<rect x="1" y="2" width="1" height="1" fill="#1b1f2a"/>
<rect x="2" y="2" width="14" height="1" fill="#2fa3e0"/>
<rect x="16" y="2" width="1" height="1" fill="#1b1f2a"/>
<rect x="1" y="3" width="1" height="1" fill="#1b1f2a"/>
<rect x="2" y="3" width="1" height="1" fill="#2fa3e0"/>
<rect x="3" y="3" width="12" height="1" fill="#5ec8ff"/>
<rect x="15" y="3" width="1" height="1" fill="#2fa3e0"/>
<rect x="16" y="3" width="1" height="1" fill="#1b1f2a"/>
<rect x="1" y="4" width="1" height="1" fill="#1b1f2a"/>
<rect x="2" y="4" width="1" height="1" fill="#2fa3e0"/>
<rect x="3" y="4" width="1" height="1" fill="#5ec8ff"/>
<rect x="4" y="4" width="10" height="1" fill="#8fd3ff"/>
<rect x="14" y="4" width="1" height="1" fill="#5ec8ff"/>
<rect x="15" y="4" width="1" height="1" fill="#2fa3e0"/>
<rect x="16" y="4" width="1" height="1" fill="#1b1f2a"/>
<rect x="1" y="5" width="1" height="1" fill="#1b1f2a"/>
<rect x="2" y="5" width="1" height="1" fill="#2fa3e0"/>
<rect x="3" y="5" width="1" height="1" fill="#5ec8ff"/>
<rect x="4" y="5" width="1" height="1" fill="#8fd3ff"/>
<rect x="5" y="5" width="8" height="1" fill="#5ec8ff"/>
<rect x="13" y="5" width="1" height="1" fill="#8fd3ff"/>
<rect x="14" y="5" width="1" height="1" fill="#5ec8ff"/>
<rect x="15" y="5" width="1" height="1" fill="#2fa3e0"/>
<rect x="16" y="5" width="1" height="1" fill="#1b1f2a"/>
<rect x="1" y="6" width="1" height="1" fill="#1b1f2a"/>
<rect x="2" y="6" width="1" height="1" fill="#2fa3e0"/>
<rect x="3" y="6" width="1" height="1" fill="#5ec8ff"/>
<rect x="4" y="6" width="10" height="1" fill="#8fd3ff"/>
<rect x="14" y="6" width="1" height="1" fill="#5ec8ff"/>
<rect x="15" y="6" width="1" height="1" fill="#2fa3e0"/>
<rect x="16" y="6" width="1" height="1" fill="#1b1f2a"/>
<rect x="1" y="7" width="1" height="1" fill="#1b1f2a"/>
<rect x="2" y="7" width="1" height="1" fill="#2fa3e0"/>
<rect x="3" y="7" width="12" height="1" fill="#5ec8ff"/>
<rect x="15" y="7" width="1" height="1" fill="#2fa3e0"/>
<rect x="16" y="7" width="1" height="1" fill="#1b1f2a"/>
<rect x="1" y="8" width="1" height="1" fill="#1b1f2a"/>
<rect x="2" y="8" width="14" height="1" fill="#2fa3e0"/>
<rect x="16" y="8" width="1" height="1" fill="#1b1f2a"/>
<rect x="1" y="9" width="16" height="1" fill="#1b1f2a"/>
<rect x="2" y="10" width="14" height="1" fill="#4a5568"/>
<rect x="1" y="11" width="16" height="1" fill="#4a5568"/>
<rect x="0" y="12" width="1" height="1" fill="#4a5568"/>
<rect x="1" y="12" width="16" height="1" fill="#0f1218"/>
<rect x="17" y="12" width="1" height="1" fill="#4a5568"/>
<rect x="0" y="13" width="1" height="1" fill="#4a5568"/>
<rect x="1" y="13" width="1" height="1" fill="#0f1218"/>
<rect x="2" y="13" width="14" height="1" fill="#1a1d24"/>
<rect x="16" y="13" width="1" height="1" fill="#0f1218"/>
<rect x="17" y="13" width="1" height="1" fill="#4a5568"/>
<rect x="1" y="14" width="16" height="1" fill="#4a5568"/>
<rect x="2" y="15" width="14" height="1" fill="#4a5568"/>
</svg>