<svg xmlns="http://www.w3.org/2000/svg" viewBox="0 0 18 15" width="18" height="15" shape-rendering="crispEdges">
<rect x="1" y="1" width="16" height="1" fill="#1b1f2a"/>
<rect x="1" y="2" width="1" height="1" fill="#1b1f2a"/>
<rect x="2" y="2" width="14" height="1" fill="#2b3142"/>
<rect x="16" y="2" width="1" height="1" fill="#1b1f2a"/>
<rect x="1" y="3" width="1" height="1" fill="#1b1f2a"/>
<rect x="2" y="3" width="1" height="1" fill="#2b3142"/>
<rect x="3" y="3" width="10" height="1" fill="#4ade80"/>
<rect x="13" y="3" width="3" height="1" fill="#2b3142"/>
<rect x="16" y="3" width="1" height="1" fill="#1b1f2a"/>
<rect x="1" y="4" width="1" height="1" fill="#1b1f2a"/>
<rect x="2" y="4" width="14" height="1" fill="#2b3142"/>
<rect x="16" y="4" width="1" height="1" fill="#1b1f2a"/>
<rect x="1" y="5" width="16" height="1" fill="#1b1f2a"/>
<rect x="1" y="6" width="1" height="1" fill="#1b1f2a"/>
<rect x="2" y="6" width="14" height="1" fill="#2b3142"/>
<rect x="16" y="6" width="1" height="1" fill="#1b1f2a"/>
<rect x="1" y="7" width="1" height="1" fill="#1b1f2a"/>
<rect x="2" y="7" width="1" height="1" fill="#2b3142"/>
<rect x="3" y="7" width="2" height="1" fill="#f7d154"/>
<rect x="5" y="7" width="8" height="1" fill="#4ade80"/>
<rect x="13" y="7" width="3" height="1" fill="#2b3142"/>
<rect x="16" y="7" width="1" height="1" fill="#1b1f2a"/>
<rect x="1" y="8" width="1" height="1" fill="#1b1f2a"/>
<rect x="2" y="8" width="14" height="1" fill="#2b3142"/>
<rect x="16" y="8" width="1" height="1" fill="#1b1f2a"/>
<rect x="1" y="9" width="16" height="1" fill="#1b1f2a"/>
<rect x="1" y="10" width="1" height="1" fill="#1b1f2a"/>
<rect x="2" y="10" width="14" height="1" fill="#2b3142"/>
<rect x="16" y="10" width="1" height="1" fill="#1b1f2a"/>
<rect x="1" y="11" width="1" height="1" fill="#1b1f2a"/>
<rect x="2" y="11" width="1" height="1" fill="#2b3142"/>
<rect x="3" y="11" width="2" height="1" fill="#4ade80"/>
<rect x="5" y="11" width="2" height="1" fill="#f7d154"/>
<rect x="7" y="11" width="6" height="1" fill="#4ade80"/>
<rect x="13" y="11" width="3" height="1" fill="#2b3142"/>
<rect x="16" y="11" width="1" height="1" fill="#1b1f2a"/>
<rect x="1" y="12" width="1" height="1" fill="#1b1f2a"/>
<rect x="2" y="12" width="14" height="1" fill="#2b3142"/>
<rect x="16" y="12" width="1" height="1" fill="#1b1f2a"/>
<rect x="1" y="13" width="16" height="1" fill="#1b1f2a"/>
</svg>