<svg xmlns="http://www.w3.org/2000/svg" viewBox="0 0 22 8" width="22" height="8" shape-rendering="crispEdges">
<rect x="1" y="1" width="19" height="1" fill="#4a5568"/>
<rect x="0" y="2" width="1" height="1" fill="#4a5568"/>
<rect x="1" y="2" width="19" height="1" fill="#c9d3e0"/>
<rect x="20" y="2" width="1" height="1" fill="#4a5568"/>
<rect x="0" y="3" width="1" height="1" fill="#4a5568"/>
<rect x="1" y="3" width="1" height="1" fill="#c9d3e0"/>
<rect x="2" y="3" width="1" height="1" fill="#1a1d24"/>
<rect x="3" y="3" width="1" height="1" fill="#c9d3e0"/>
<rect x="4" y="3" width="1" height="1" fill="#1a1d24"/>
<rect x="5" y="3" width="1" height="1" fill="#c9d3e0"/>
<rect x="6" y="3" width="1" height="1" fill="#1a1d24"/>
<rect x="7" y="3" width="1" height="1" fill="#c9d3e0"/>
<rect x="8" y="3" width="1" height="1" fill="#1a1d24"/>
<rect x="9" y="3" width="1" height="1" fill="#c9d3e0"/>
<rect x="10" y="3" width="1" height="1" fill="#1a1d24"/>
<rect x="11" y="3" width="1" height="1" fill="#c9d3e0"/>
<rect x="12" y="3" width="1" height="1" fill="#1a1d24"/>
<rect x="13" y="3" width="1" height="1" fill="#c9d3e0"/>
<rect x="14" y="3" width="1" height="1" fill="#1a1d24"/>
<rect x="15" y="3" width="1" height="1" fill="#c9d3e0"/>
<rect x="16" y="3" width="1" height="1" fill="#1a1d24"/>
<rect x="17" y="3" width="1" height="1" fill="#c9d3e0"/>
<rect x="18" y="3" width="1" height="1" fill="#1a1d24"/>
<rect x="19" y="3" width="1" height="1" fill="#c9d3e0"/>
<rect x="20" y="3" width="1" height="1" fill="#4a5568"/>
<rect x="0" y="4" width="1" height="1" fill="#4a5568"/>
<rect x="1" y="4" width="19" height="1" fill="#c9d3e0"/>
<rect x="20" y="4" width="1" height="1" fill="#4a5568"/>
<rect x="0" y="5" width="1" height="1" fill="#4a5568"/>
<rect x="1" y="5" width="1" height="1" fill="#c9d3e0"/>
<rect x="2" y="5" width="1" height="1" fill="#1a1d24"/>
<rect x="3" y="5" width="1" height="1" fill="#c9d3e0"/>
<rect x="4" y="5" width="1" height="1" fill="#1a1d24"/>
<rect x="5" y="5" width="1" height="1" fill="#c9d3e0"/>
<rect x="6" y="5" width="1" height="1" fill="#1a1d24"/>
<rect x="7" y="5" width="1" height="1" fill="#c9d3e0"/>
<rect x="8" y="5" width="1" height="1" fill="#1a1d24"/>
<rect x="9" y="5" width="1" height="1" fill="#c9d3e0"/>
<rect x="10" y="5" width="1" height="1" fill="#1a1d24"/>
<rect x="11" y="5" width="1" height="1" fill="#c9d3e0"/>
<rect x="12" y="5" width="1" height="1" fill="#1a1d24"/>
<rect x="13" y="5" width="1" height="1" fill="#c9d3e0"/>
<rect x="14" y="5" width="1" height="1" fill="#1a1d24"/>
<rect x="15" y="5" width="1" height="1" fill="#c9d3e0"/>
<rect x="16" y="5" width="1" height="1" fill="#1a1d24"/>
<rect x="17" y="5" width="1" height="1" fill="#c9d3e0"/>
<rect x="18" y="5" width="1" height="1" fill="#1a1d24"/>
<rect x="19" y="5" width="1" height="1" fill="#c9d3e0"/>
<rect x="20" y="5" width="1" height="1" fill="#4a5568"/>
<rect x="1" y="6" width="19" height="1" fill="#4a5568"/>
</svg>