<svg xmlns="http://www.w3.org/2000/svg" viewBox="0 0 18 11" width="18" height="11" shape-rendering="crispEdges">
<rect x="1" y="1" width="16" height="1" fill="#1b1f2a"/>
<rect x="1" y="2" width="1" height="1" fill="#1b1f2a"/>
<rect x="2" y="2" width="14" height="1" fill="#2fa3e0"/>
<rect x="16" y="2" width="1" height="1" fill="#1b1f2a"/>
<rect x="1" y="3" width="1" height="1" fill="#1b1f2a"/>
<rect x="2" y="3" width="1" height="1" fill="#2fa3e0"/>
<rect x="3" y="3" width="12" height="1" fill="#e8ecf1"/>
<rect x="15" y="3" width="1" height="1" fill="#2fa3e0"/>
<rect x="16" y="3" width="1" height="1" fill="#1b1f2a"/>
<rect x="1" y="4" width="1" height="1" fill="#1b1f2a"/>
<rect x="2" y="4" width="1" height="1" fill="#2fa3e0"/>
<rect x="3" y="4" width="6" height="1" fill="#e8ecf1"/>
<rect x="9" y="4" width="2" height="1" fill="#4ade80"/>
<rect x="11" y="4" width="5" height="1" fill="#e8ecf1"/>
<rect x="16" y="4" width="1" height="1" fill="#2fa3e0"/>
<rect x="17" y="4" width="1" height="1" fill="#1b1f2a"/>
<rect x="1" y="5" width="1" height="1" fill="#1b1f2a"/>
<rect x="2" y="5" width="1" height="1" fill="#2fa3e0"/>
<rect x="3" y="5" width="4" height="1" fill="#e8ecf1"/>
<rect x="7" y="5" width="2" height="1" fill="#4ade80"/>
<rect x="9" y="5" width="2" height="1" fill="#e05252"/>
<rect x="11" y="5" width="2" height="1" fill="#4ade80"/>
<rect x="13" y="5" width="3" height="1" fill="#e8ecf1"/>
<rect x="16" y="5" width="1" height="1" fill="#2fa3e0"/>
<rect x="17" y="5" width="1" height="1" fill="#1b1f2a"/>
<rect x="1" y="6" width="1" height="1" fill="#1b1f2a"/>
<rect x="2" y="6" width="1" height="1" fill="#2fa3e0"/>
<rect x="3" y="6" width="2" height="1" fill="#e8ecf1"/>
<rect x="5" y="6" width="2" height="1" fill="#4ade80"/>
<rect x="7" y="6" width="6" height="1" fill="#e05252"/>
<rect x="13" y="6" width="2" height="1" fill="#4ade80"/>
<rect x="15" y="6" width="2" height="1" fill="#e8ecf1"/>
<rect x="17" y="6" width="1" height="1" fill="#2fa3e0"/>
<rect x="1" y="7" width="1" height="1" fill="#1b1f2a"/>
<rect x="2" y="7" width="1" height="1" fill="#2fa3e0"/>
<rect x="3" y="7" width="14" height="1" fill="#e8ecf1"/>
<rect x="17" y="7" width="1" height="1" fill="#2fa3e0"/>
<rect x="1" y="8" width="1" height="1" fill="#1b1f2a"/>
<rect x="2" y="8" width="14" height="1" fill="#2fa3e0"/>
<rect x="16" y="8" width="1" height="1" fill="#1b1f2a"/>
<rect x="1" y="9" width="16" height="1" fill="#1b1f2a"/>
</svg>