<svg xmlns="http://www.w3.org/2000/svg" viewBox="0 0 22 10" width="22" height="10" shape-rendering="crispEdges">
<rect x="4" y="1" width="13" height="1" fill="#1b1f2a"/>
<rect x="3" y="2" width="1" height="1" fill="#1b1f2a"/>
<rect x="4" y="2" width="13" height="1" fill="#4a5568"/>
<rect x="17" y="2" width="1" height="1" fill="#1b1f2a"/>
<rect x="3" y="3" width="1" height="1" fill="#1b1f2a"/>
<rect x="4" y="3" width="1" height="1" fill="#4a5568"/>
<rect x="5" y="3" width="2" height="1" fill="#4ade80"/>
<rect x="7" y="3" width="2" height="1" fill="#2b3142"/>
<rect x="9" y="3" width="2" height="1" fill="#4ade80"/>
<rect x="11" y="3" width="2" height="1" fill="#2b3142"/>
<rect x="13" y="3" width="2" height="1" fill="#4ade80"/>
<rect x="15" y="3" width="1" height="1" fill="#2b3142"/>
<rect x="16" y="3" width="1" height="1" fill="#4a5568"/>
<rect x="17" y="3" width="1" height="1" fill="#1b1f2a"/>
<rect x="3" y="4" width="1" height="1" fill="#1b1f2a"/>
<rect x="4" y="4" width="13" height="1" fill="#4a5568"/>
<rect x="17" y="4" width="1" height="1" fill="#1b1f2a"/>
<rect x="4" y="5" width="13" height="1" fill="#1b1f2a"/>
<rect x="4" y="6" width="1" height="1" fill="#2b3142"/>
<rect x="9" y="6" width="1" height="1" fill="#2b3142"/>
<rect x="14" y="6" width="1" height="1" fill="#2b3142"/>
<rect x="3" y="7" width="1" height="1" fill="#2b3142"/>
<rect x="9" y="7" width="1" height="1" fill="#2b3142"/>
<rect x="15" y="7" width="1" height="1" fill="#2b3142"/>
<rect x="2" y="8" width="1" height="1" fill="#2b3142"/>
<rect x="9" y="8" width="1" height="1" fill="#2b3142"/>
<rect x="16" y="8" width="1" height="1" fill="#2b3142"/>
</svg>